<svg width="174" height="51" viewBox="0 0 174 51" fill="none" xmlns="http://www.w3.org/2000/svg">
<g filter="url(#filter0_d_27_36693)">
<rect x="4" width="166" height="43" rx="14" fill="url(#paint0_linear_27_36693)" shape-rendering="crispEdges"/>
<rect x="5" y="1" width="164" height="41" rx="13" stroke="url(#paint1_linear_27_36693)" stroke-width="2" shape-rendering="crispEdges"/>
<path d="M34.848 21.672C35.4133 21.8853 35.8453 22.1787 36.144 22.552C36.4427 22.9253 36.592 23.3573 36.592 23.848V24.04C36.592 25.0427 36.1067 25.8213 35.136 26.376C34.176 26.92 32.8053 27.192 31.024 27.192C29.0933 27.192 27.6213 26.8293 26.608 26.104C25.6053 25.368 25.104 24.296 25.104 22.888V22.744H26.72V22.888C26.72 23.8587 27.0667 24.5733 27.76 25.032C28.464 25.48 29.5627 25.704 31.056 25.704C32.3893 25.704 33.376 25.5653 34.016 25.288C34.656 25.0107 34.976 24.5787 34.976 23.992V23.816C34.976 23.3253 34.736 22.9787 34.256 22.776C33.776 22.5627 32.96 22.456 31.808 22.456H29.008V21.032H31.696C32.7627 21.032 33.5307 20.92 34 20.696C34.48 20.472 34.72 20.1093 34.72 19.608V19.432C34.72 18.344 33.456 17.8 30.928 17.8C29.52 17.8 28.4747 18.0347 27.792 18.504C27.1093 18.9733 26.768 19.6827 26.768 20.632V20.76H25.168V20.632C25.168 19.2347 25.664 18.168 26.656 17.432C27.6587 16.6853 29.0933 16.312 30.96 16.312C32.6667 16.312 33.9893 16.5787 34.928 17.112C35.8667 17.6453 36.336 18.392 36.336 19.352V19.56C36.336 20.5093 35.84 21.2133 34.848 21.672ZM48.7813 26.76V27H47.1493L45.9013 24.344H39.9813L38.7333 27H37.1013V26.76L42.0613 16.504H43.8213L48.7813 26.76ZM45.2133 22.904L42.9413 18.088L40.6693 22.904H45.2133ZM60.4058 16.504V27H58.8058V17.928H52.1658V27H50.5658V16.504H60.4058ZM64.947 16.504V24.824L71.907 16.504H73.507V27H71.907V18.68L64.947 27H63.347V16.504H64.947ZM82.0884 27.192C80.8617 27.192 79.7897 26.9787 78.8724 26.552C77.955 26.1147 77.2457 25.496 76.7444 24.696C76.2537 23.896 76.0084 22.9627 76.0084 21.896V21.624C76.0084 20.5573 76.2537 19.624 76.7444 18.824C77.2457 18.024 77.955 17.4053 78.8724 16.968C79.7897 16.5307 80.8617 16.312 82.0884 16.312C83.1977 16.312 84.195 16.4987 85.0804 16.872C85.9764 17.2453 86.675 17.7627 87.1764 18.424C87.6884 19.0747 87.9444 19.8053 87.9444 20.616V20.76H86.3284V20.616C86.3284 20.0827 86.147 19.6027 85.7844 19.176C85.4217 18.7493 84.915 18.4133 84.2644 18.168C83.6244 17.9227 82.899 17.8 82.0884 17.8C80.659 17.8 79.555 18.1307 78.7764 18.792C78.0084 19.4533 77.6244 20.392 77.6244 21.608V21.912C77.6244 23.128 78.0084 24.0667 78.7764 24.728C79.555 25.3787 80.659 25.704 82.0884 25.704C82.9097 25.704 83.6404 25.5867 84.2804 25.352C84.931 25.1067 85.4324 24.7707 85.7844 24.344C86.147 23.9173 86.3284 23.4373 86.3284 22.904V22.744H87.9444V22.904C87.9444 23.7147 87.6884 24.4453 87.1764 25.096C86.675 25.7467 85.9764 26.2587 85.0804 26.632C84.195 27.0053 83.1977 27.192 82.0884 27.192ZM100.344 26.76V27H98.7118L97.4638 24.344H91.5438L90.2958 27H88.6638V26.76L93.6238 16.504H95.3838L100.344 26.76ZM96.7758 22.904L94.5038 18.088L92.2318 22.904H96.7758ZM99.5826 17.928V16.504H110.255V17.928H105.711V27H104.127V17.928H99.5826ZM113.525 16.504V20.536H118.213C119.397 20.536 120.325 20.8133 120.997 21.368C121.68 21.9227 122.021 22.6853 122.021 23.656V23.88C122.021 24.8507 121.68 25.6133 120.997 26.168C120.325 26.7227 119.397 27 118.213 27H111.925V16.504H113.525ZM118.181 25.576C118.874 25.576 119.418 25.4267 119.813 25.128C120.208 24.8187 120.405 24.3973 120.405 23.864V23.672C120.405 23.1387 120.208 22.7227 119.813 22.424C119.418 22.1147 118.874 21.96 118.181 21.96H113.525V25.576H118.181ZM129.979 27.192C128.752 27.192 127.68 26.9787 126.763 26.552C125.846 26.1147 125.136 25.496 124.635 24.696C124.144 23.896 123.899 22.9627 123.899 21.896V21.624C123.899 20.5573 124.144 19.624 124.635 18.824C125.136 18.024 125.846 17.4053 126.763 16.968C127.68 16.5307 128.752 16.312 129.979 16.312C131.088 16.312 132.086 16.4987 132.971 16.872C133.867 17.2453 134.566 17.7627 135.067 18.424C135.579 19.0747 135.835 19.8053 135.835 20.616V20.76H134.219V20.616C134.219 20.0827 134.038 19.6027 133.675 19.176C133.312 18.7493 132.806 18.4133 132.155 18.168C131.515 17.9227 130.79 17.8 129.979 17.8C128.55 17.8 127.446 18.1307 126.667 18.792C125.899 19.4533 125.515 20.392 125.515 21.608V21.912C125.515 23.128 125.899 24.0667 126.667 24.728C127.446 25.3787 128.55 25.704 129.979 25.704C130.8 25.704 131.531 25.5867 132.171 25.352C132.822 25.1067 133.323 24.7707 133.675 24.344C134.038 23.9173 134.219 23.4373 134.219 22.904V22.744H135.835V22.904C135.835 23.7147 135.579 24.4453 135.067 25.096C134.566 25.7467 133.867 26.2587 132.971 26.632C132.086 27.0053 131.088 27.192 129.979 27.192ZM148.283 16.504V27H146.683V22.952H144.027L139.963 27H138.059V26.76L141.867 22.952H141.835C140.662 22.952 139.729 22.6747 139.035 22.12C138.353 21.5547 138.011 20.792 138.011 19.832V19.656C138.011 18.6853 138.353 17.9173 139.035 17.352C139.729 16.7867 140.662 16.504 141.835 16.504H148.283ZM146.683 17.928H141.867C141.153 17.928 140.598 18.0827 140.203 18.392C139.819 18.6907 139.627 19.112 139.627 19.656V19.832C139.627 20.376 139.819 20.7973 140.203 21.096C140.598 21.3947 141.153 21.544 141.867 21.544H146.683V17.928Z" fill="white"/>
</g>
<defs>
<filter id="filter0_d_27_36693" x="0" y="0" width="174" height="51" filterUnits="userSpaceOnUse" color-interpolation-filters="sRGB">
<feFlood flood-opacity="0" result="BackgroundImageFix"/>
<feColorMatrix in="SourceAlpha" type="matrix" values="0 0 0 0 0 0 0 0 0 0 0 0 0 0 0 0 0 0 127 0" result="hardAlpha"/>
<feOffset dy="4"/>
<feGaussianBlur stdDeviation="2"/>
<feComposite in2="hardAlpha" operator="out"/>
<feColorMatrix type="matrix" values="0 0 0 0 0 0 0 0 0 0 0 0 0 0 0 0 0 0 0.25 0"/>
<feBlend mode="normal" in2="BackgroundImageFix" result="effect1_dropShadow_27_36693"/>
<feBlend mode="normal" in="SourceGraphic" in2="effect1_dropShadow_27_36693" result="shape"/>
</filter>
<linearGradient id="paint0_linear_27_36693" x1="60.2258" y1="-13.4375" x2="104.4" y2="74.5797" gradientUnits="userSpaceOnUse">
<stop stop-color="#3E8DFF"/>
<stop offset="1" stop-color="#FF8050"/>
</linearGradient>
<linearGradient id="paint1_linear_27_36693" x1="60.2258" y1="-13.4375" x2="104.4" y2="74.5797" gradientUnits="userSpaceOnUse">
<stop stop-color="#FF8050"/>
<stop offset="1" stop-color="#3E8DFF"/>
</linearGradient>
</defs>
</svg>
