<svg width="41" height="36" viewBox="0 0 41 36" fill="none" xmlns="http://www.w3.org/2000/svg">
<path d="M32.989 2.68119C32.9863 1.20085 31.7247 0.00158801 30.1687 0L2.81863 0.0161977C1.26159 0.0187385 0.000667685 1.21959 0 2.70088L0.0113506 20.2541C0.0123522 21.7354 1.27494 22.9356 2.83165 22.9356L12.1736 22.9299C12.3829 22.9299 12.5772 23.034 12.6853 23.2043L16.392 29.0322L20.0906 23.2001C20.1991 23.0293 20.3931 22.9251 20.6028 22.9248L30.1814 22.9194C31.7384 22.9165 32.9993 21.7157 33 20.2344L32.989 2.68119ZM27.3968 15.956H5.60355C5.27304 15.956 5.0053 15.7013 5.0053 15.3868C5.0053 15.0727 5.27304 14.8177 5.60355 14.8177H27.3968C27.7273 14.8177 27.995 15.0727 27.995 15.3868C27.995 15.7013 27.7273 15.956 27.3968 15.956ZM27.3968 11.8907H5.60355C5.27304 11.8907 5.0053 11.636 5.0053 11.3215C5.0053 11.0074 5.27304 10.7524 5.60355 10.7524H27.3968C27.7273 10.7524 27.995 11.0074 27.995 11.3215C27.995 11.636 27.7273 11.8907 27.3968 11.8907ZM27.3968 7.82538H5.60355C5.27304 7.82538 5.0053 7.57066 5.0053 7.25624C5.0053 6.94213 5.27304 6.68709 5.60355 6.68709H27.3968C27.7273 6.68709 27.995 6.94213 27.995 7.25624C27.995 7.57066 27.7273 7.82538 27.3968 7.82538Z" fill="url(#paint0_linear_188_6)"/>
<path d="M40.992 16.9394C40.99 15.8686 40.0725 15.0011 38.9409 15L19.0499 15.0117C17.9175 15.0136 17.0005 15.8822 17 16.9536L17.0083 29.6504C17.009 30.7219 17.9272 31.5901 19.0594 31.5901L25.8535 31.5859C26.0057 31.5859 26.147 31.6613 26.2257 31.7844L28.9215 36L31.6114 31.7814C31.6903 31.6578 31.8313 31.5825 31.9838 31.5823L38.9501 31.5784C40.0825 31.5763 40.9995 30.7077 41 29.6362L40.992 16.9394ZM36.9249 26.5415H21.0753C20.8349 26.5415 20.6402 26.3572 20.6402 26.1298C20.6402 25.9026 20.8349 25.7181 21.0753 25.7181H36.9249C37.1653 25.7181 37.36 25.9026 37.36 26.1298C37.36 26.3572 37.1653 26.5415 36.9249 26.5415ZM36.9249 23.6009H21.0753C20.8349 23.6009 20.6402 23.4167 20.6402 23.1892C20.6402 22.962 20.8349 22.7776 21.0753 22.7776H36.9249C37.1653 22.7776 37.36 22.962 37.36 23.1892C37.36 23.4167 37.1653 23.6009 36.9249 23.6009ZM36.9249 20.6604H21.0753C20.8349 20.6604 20.6402 20.4761 20.6402 20.2487C20.6402 20.0215 20.8349 19.837 21.0753 19.837H36.9249C37.1653 19.837 37.36 20.0215 37.36 20.2487C37.36 20.4761 37.1653 20.6604 36.9249 20.6604Z" fill="url(#paint1_linear_188_6)"/>
<defs>
<linearGradient id="paint0_linear_188_6" x1="17" y1="24.1724" x2="40.999" y2="23.6436" gradientUnits="userSpaceOnUse">
<stop stop-color="#3E8DFF"/>
<stop offset="1" stop-color="#FF8050"/>
</linearGradient>
<linearGradient id="paint1_linear_188_6" x1="17" y1="24.1724" x2="40.999" y2="23.6436" gradientUnits="userSpaceOnUse">
<stop stop-color="#3E8DFF"/>
<stop offset="1" stop-color="#FF8050"/>
</linearGradient>
</defs>
</svg>
