<svg width="34" height="34" viewBox="0 0 34 34" fill="none" xmlns="http://www.w3.org/2000/svg">
<path d="M17.037 0.543732H16.9609C7.75825 0.543732 0.298035 8.01445 0.298035 17.2301V17.3062C0.298035 26.5218 7.75825 33.9925 16.9609 33.9925H17.037C26.2396 33.9925 33.6999 26.5218 33.6999 17.3062V17.2301C33.6999 8.01445 26.2396 0.543732 17.037 0.543732Z" fill="#00B0F2"/>
<path d="M6.62425 16.698C6.67106 16.6746 6.71789 16.6523 6.76353 16.6312C7.55695 16.2633 8.36089 15.9187 9.16367 15.5742C9.20697 15.5742 9.2795 15.5238 9.32046 15.5074C9.38248 15.4805 9.44452 15.4547 9.50654 15.4277L9.86346 15.2742C10.1022 15.1723 10.3397 15.0703 10.5785 14.9684C11.0547 14.7644 11.531 14.5605 12.0073 14.3555C12.9599 13.9477 13.9136 13.5387 14.8662 13.1309C15.8188 12.723 16.7725 12.3141 17.725 11.9062C18.6776 11.4984 19.6313 11.0895 20.5839 10.6816C21.5365 10.2738 22.4902 9.86484 23.4428 9.45703C23.6546 9.36562 23.884 9.22969 24.111 9.18984C24.3017 9.15586 24.4878 9.09023 24.6797 9.05391C25.0436 8.98476 25.445 8.95664 25.7938 9.10781C25.9143 9.16055 26.0255 9.23437 26.1179 9.32695C26.5603 9.76523 26.4982 10.4848 26.4046 11.1012C25.7528 15.3973 25.101 19.6945 24.448 23.9906C24.3591 24.5801 24.2374 25.2269 23.7728 25.5996C23.3796 25.9148 22.8202 25.95 22.3346 25.8164C21.8489 25.6816 21.4206 25.3992 21.0005 25.1215C19.258 23.966 17.5144 22.8105 15.7719 21.6551C15.3577 21.3809 14.8966 21.0223 14.9013 20.5242C14.9036 20.2242 15.0827 19.957 15.2652 19.7191C16.7795 17.741 18.9643 16.3816 20.5898 14.4949C20.8191 14.2289 20.9994 13.7484 20.6846 13.5949C20.4973 13.5035 20.282 13.6277 20.1111 13.7461C17.9626 15.2402 15.8152 16.7355 13.6667 18.2297C12.9657 18.7172 12.2308 19.2187 11.3859 19.3383C10.63 19.4461 9.86932 19.2352 9.13793 19.0195C8.52473 18.8391 7.91268 18.6539 7.30299 18.4629C6.97884 18.3621 6.64415 18.2531 6.39372 18.0246C6.14329 17.7961 5.99937 17.4117 6.15033 17.107C6.24512 16.916 6.42885 16.7953 6.62194 16.6969L6.62425 16.698Z" fill="#FEFFFC"/>
</svg>
