<svg width="34" height="35" viewBox="0 0 34 35" fill="none" xmlns="http://www.w3.org/2000/svg">
<path d="M16.7389 0.601776H16.6629C7.46023 0.601776 0 8.0725 0 17.2881V17.3643C0 26.5799 7.46023 34.0506 16.6629 34.0506H16.7389C25.9416 34.0506 33.4018 26.5799 33.4018 17.3643V17.2881C33.4018 8.0725 25.9416 0.601776 16.7389 0.601776Z" fill="black"/>
<path d="M25.1693 13.8861V17.0443C24.6181 16.9904 23.902 16.865 23.1097 16.5744C22.0752 16.1947 21.3052 15.6756 20.8008 15.2736V21.6568L20.788 21.6369C20.7962 21.7635 20.8008 21.8924 20.8008 22.0224C20.8008 25.1924 18.2252 27.7728 15.0585 27.7728C11.8919 27.7728 9.31622 25.1924 9.31622 22.0224C9.31622 18.8525 11.8919 16.2709 15.0585 16.2709C15.3686 16.2709 15.6729 16.2955 15.9701 16.3435V19.456C15.6846 19.3541 15.378 19.299 15.0585 19.299C13.5595 19.299 12.3389 20.5201 12.3389 22.0224C12.3389 23.5248 13.5595 24.7459 15.0585 24.7459C16.5576 24.7459 17.7782 23.5236 17.7782 22.0224C17.7782 21.9662 17.777 21.9099 17.7735 21.8537V9.4494H20.9249C20.9366 9.71659 20.9471 9.98612 20.9588 10.2533C20.9799 10.7795 21.1671 11.2846 21.4936 11.6982C21.8763 12.1846 22.4415 12.7494 23.2349 13.2006C23.978 13.6224 24.6755 13.8029 25.1693 13.8885V13.8861Z" fill="#FF004F"/>
<path d="M24.0857 11.3221V14.4803C23.5345 14.4264 22.8183 14.301 22.0261 14.0103C20.9916 13.6307 20.2216 13.1115 19.7172 12.7096V19.0928L19.7043 19.0728C19.7125 19.1994 19.7172 19.3283 19.7172 19.4584C19.7172 22.6283 17.1416 25.2088 13.9749 25.2088C10.8083 25.2088 8.2326 22.6283 8.2326 19.4584C8.2326 16.2885 10.8083 13.7068 13.9749 13.7068C14.285 13.7068 14.5893 13.7314 14.8865 13.7795V16.892C14.601 16.79 14.2944 16.7349 13.9749 16.7349C12.4759 16.7349 11.2553 17.956 11.2553 19.4584C11.2553 20.9607 12.4759 22.1818 13.9749 22.1818C15.474 22.1818 16.6945 20.9596 16.6945 19.4584C16.6945 19.4021 16.6933 19.3459 16.6898 19.2896V6.883H19.8413C19.853 7.15018 19.8635 7.41971 19.8752 7.6869C19.8963 8.21307 20.0835 8.71815 20.41 9.13182C20.7927 9.61815 21.3579 10.183 22.1513 10.6342C22.8944 11.0549 23.5918 11.2365 24.0857 11.3221Z" fill="#00F7EF"/>
<path d="M24.7749 12.7025V15.8607C24.2237 15.8068 23.5075 15.6814 22.7153 15.3908C21.6808 15.0111 20.9108 14.492 20.4064 14.09V20.4732L20.3936 20.4533C20.4018 20.5799 20.4064 20.7088 20.4064 20.8388C20.4064 24.0088 17.8308 26.5892 14.6641 26.5892C11.4975 26.5892 8.92181 24.0088 8.92181 20.8388C8.92181 17.6689 11.4975 15.0873 14.6641 15.0873C14.9742 15.0873 15.2785 15.1119 15.5757 15.1599V18.2724C15.2902 18.1705 14.9836 18.1154 14.6641 18.1154C13.1651 18.1154 11.9445 19.3365 11.9445 20.8388C11.9445 22.3412 13.1651 23.5623 14.6641 23.5623C16.1632 23.5623 17.3837 22.34 17.3837 20.8388C17.3837 20.7826 17.3826 20.7263 17.3791 20.6701V8.26581H20.5305C20.5422 8.533 20.5527 8.80253 20.5644 9.06971C20.5855 9.59589 20.7727 10.101 21.0992 10.5146C21.4819 11.001 22.0471 11.5658 22.8405 12.017C23.5836 12.4377 24.2811 12.6193 24.7749 12.7049V12.7025Z" fill="white"/>
</svg>
