<svg width="81" height="74" viewBox="0 0 81 74" fill="none" xmlns="http://www.w3.org/2000/svg">
<path d="M80.973 7.28704C80.9664 3.56067 77.8698 0.541839 74.0504 0.537842H74.0463L6.91846 0.578615C3.09663 0.585011 0.00163886 3.60784 0 7.33661L0.0278606 51.5222C0.0303189 55.251 3.12941 58.2722 6.95042 58.2722H6.95534L29.8806 58.2578C30.3944 58.2578 30.8713 58.5201 31.1368 58.9486L40.2349 73.619L49.3134 58.9382C49.5797 58.5081 50.0558 58.2458 50.5704 58.245L74.0815 58.2314C77.9034 58.2242 80.9984 55.2014 81 51.4726L80.973 7.28704ZM67.2467 40.7029H13.7542C12.9429 40.7029 12.2857 40.0617 12.2857 39.2702C12.2857 38.4795 12.9429 37.8375 13.7542 37.8375H67.2467C68.0579 37.8375 68.7151 38.4795 68.7151 39.2702C68.7151 40.0617 68.0579 40.7029 67.2467 40.7029ZM67.2467 30.4695H13.7542C12.9429 30.4695 12.2857 29.8284 12.2857 29.0369C12.2857 28.2462 12.9429 27.6042 13.7542 27.6042H67.2467C68.0579 27.6042 68.7151 28.2462 68.7151 29.0369C68.7151 29.8284 68.0579 30.4695 67.2467 30.4695ZM67.2467 20.2362H13.7542C12.9429 20.2362 12.2857 19.595 12.2857 18.8035C12.2857 18.0129 12.9429 17.3709 13.7542 17.3709H67.2467C68.0579 17.3709 68.7151 18.0129 68.7151 18.8035C68.7151 19.595 68.0579 20.2362 67.2467 20.2362Z" fill="url(#paint0_linear_29_36849)"/>
<defs>
<linearGradient id="paint0_linear_29_36849" x1="3.31534e-07" y1="32.4584" x2="80.9989" y2="30.7275" gradientUnits="userSpaceOnUse">
<stop stop-color="#3E8DFF"/>
<stop offset="1" stop-color="#FF8050"/>
</linearGradient>
</defs>
</svg>
