<svg width="81" height="93" viewBox="0 0 81 93" fill="none" xmlns="http://www.w3.org/2000/svg">
<path d="M31.1174 36.8057C41.123 36.8057 49.2345 28.6852 49.2345 18.6684C49.2345 8.65168 41.123 0.531128 31.1174 0.531128C21.1118 0.531128 13.0002 8.65168 13.0002 18.6684C13.0002 28.6852 21.1118 36.8057 31.1174 36.8057Z" fill="url(#paint0_linear_161_16)"/>
<path d="M64.6505 53.1735L63.6883 50.2902L62.7262 53.1735C62.5313 53.7554 61.9874 54.1479 61.3744 54.1479H58.3726L60.7676 55.8435C61.2805 56.2065 61.4952 56.8632 61.2964 57.4603L60.3605 60.2648L62.8637 58.492C63.3567 58.1433 64.0159 58.1433 64.5089 58.492L67.013 60.2648L66.077 57.4595C65.8774 56.8632 66.0929 56.2065 66.6058 55.8427L69.0009 54.1479H66.0007C65.3876 54.1471 64.8445 53.7546 64.6505 53.1735Z" fill="url(#paint1_linear_161_16)"/>
<path fill-rule="evenodd" clip-rule="evenodd" d="M63.6875 39.583C54.679 39.583 47.3499 46.7061 47.3499 55.4619C47.3499 64.2177 54.6782 71.3408 63.6875 71.3408C72.6968 71.3408 80.025 64.2177 80.025 55.4619C80.025 46.7061 72.696 39.583 63.6875 39.583ZM74.3086 53.8849L69.1177 57.5603L71.0961 63.4901C71.2909 64.0752 71.0881 64.7192 70.5935 65.087C70.0989 65.4548 69.4246 65.4627 68.9213 65.1069L63.6883 61.4029L58.4553 65.1069C57.9519 65.4627 57.2776 65.4548 56.783 65.087C56.2884 64.7192 56.0857 64.0752 56.2805 63.4901L58.2589 57.5603L53.068 53.8849C52.5607 53.5259 52.3444 52.8803 52.5328 52.288C52.7205 51.6958 53.27 51.2938 53.8902 51.2938H60.3494L62.3373 45.3329C62.5313 44.7502 63.076 44.3577 63.6891 44.3577C64.3021 44.3577 64.8468 44.7502 65.0409 45.3329L67.0288 51.2938H73.4879C74.1082 51.2938 74.6576 51.6958 74.8461 52.288C75.0338 52.8803 74.8175 53.5259 74.3102 53.8849H74.3086Z" fill="url(#paint2_linear_161_16)"/>
<path d="M44.5001 55.4622C44.5001 54.2354 44.6234 53.0119 44.8675 51.8099C40.5879 49.7083 35.8836 48.6193 31.1174 48.6256C22.7132 48.6256 14.8959 51.8895 9.10549 57.8153C3.52817 63.523 0.324429 71.2439 0 79.6837H50.242V68.8112C46.5842 65.3356 44.5089 60.5107 44.5001 55.4622Z" fill="url(#paint3_linear_161_16)"/>
<path d="M53.0919 92.0337V71.0702H53.0935C59.5448 75.2344 67.8329 75.2344 74.285 71.0702V92.0337L64.6562 83.1058C64.1099 82.5995 63.2654 82.5995 62.7191 83.1058L53.0919 92.0337Z" fill="url(#paint4_linear_161_16)"/>
<defs>
<linearGradient id="paint0_linear_161_16" x1="-1.20397e-06" y1="51.1506" x2="79.7014" y2="52.0068" gradientUnits="userSpaceOnUse">
<stop stop-color="#3E8DFF"/>
<stop offset="1" stop-color="#FF8050"/>
</linearGradient>
<linearGradient id="paint1_linear_161_16" x1="-1.20397e-06" y1="51.1506" x2="79.7014" y2="52.0068" gradientUnits="userSpaceOnUse">
<stop stop-color="#3E8DFF"/>
<stop offset="1" stop-color="#FF8050"/>
</linearGradient>
<linearGradient id="paint2_linear_161_16" x1="-1.20397e-06" y1="51.1506" x2="79.7014" y2="52.0068" gradientUnits="userSpaceOnUse">
<stop stop-color="#3E8DFF"/>
<stop offset="1" stop-color="#FF8050"/>
</linearGradient>
<linearGradient id="paint3_linear_161_16" x1="-1.20397e-06" y1="51.1506" x2="79.7014" y2="52.0068" gradientUnits="userSpaceOnUse">
<stop stop-color="#3E8DFF"/>
<stop offset="1" stop-color="#FF8050"/>
</linearGradient>
<linearGradient id="paint4_linear_161_16" x1="-1.20397e-06" y1="51.1506" x2="79.7014" y2="52.0068" gradientUnits="userSpaceOnUse">
<stop stop-color="#3E8DFF"/>
<stop offset="1" stop-color="#FF8050"/>
</linearGradient>
</defs>
</svg>
