<svg width="75" height="75" viewBox="0 0 75 75" fill="none" xmlns="http://www.w3.org/2000/svg">
<path fill-rule="evenodd" clip-rule="evenodd" d="M37.5 74.3326C58.0159 74.3326 74.6476 57.8738 74.6476 37.5712C74.6476 17.2686 58.0159 0.809692 37.5 0.809692C16.9841 0.809692 0.352386 17.2686 0.352386 37.5712C0.37624 57.8639 16.9941 74.309 37.5 74.3326ZM34.077 16.704C34.077 14.7565 35.6712 13.1789 37.6391 13.1789C39.6071 13.1789 41.2013 14.7565 41.2013 16.704V34.1267H58.809C60.7749 34.1267 62.3711 35.7063 62.3711 37.6518C62.3711 39.5993 60.7749 41.1769 58.809 41.1769H37.6391C35.6712 41.1769 34.077 39.5993 34.077 37.6518V16.704Z" fill="url(#paint0_linear_161_15)"/>
<defs>
<linearGradient id="paint0_linear_161_15" x1="0.0297084" y1="37.9973" x2="74.9703" y2="37.9973" gradientUnits="userSpaceOnUse">
<stop stop-color="#3E8DFF"/>
<stop offset="1" stop-color="#FF8050"/>
</linearGradient>
</defs>
</svg>
