<svg width="34" height="34" viewBox="0 0 34 34" fill="none" xmlns="http://www.w3.org/2000/svg">
<path d="M34 17.2207C34 8.01025 26.544 0.543732 17.3465 0.543732C8.14903 0.543732 0.692993 8.01025 0.692993 17.2207C0.692993 26.4311 8.14903 33.8976 17.3465 33.8976C26.544 33.8976 34 26.4311 34 17.2207Z" fill="#FF0209"/>
<path d="M24.4159 24.607C23.9197 24.6609 23.4118 24.6702 22.925 24.6691C19.1276 24.6655 15.3302 24.662 11.534 24.6597C10.3392 24.6597 9.0379 24.621 8.11459 23.8605C7.07426 23.0015 6.85777 21.512 6.77351 20.1644C6.65649 18.3175 6.64713 16.4648 6.74309 14.6167C6.79575 13.6019 6.88819 12.5624 7.32469 11.6437C7.63831 10.9839 8.1614 10.3909 8.83077 10.0792C9.60897 9.71711 10.4235 9.78157 11.2613 9.7804C13.2671 9.77805 15.2729 9.77688 17.2787 9.77454C19.364 9.77219 21.4505 9.77102 23.5359 9.76868C24.5212 9.76868 25.5791 9.7886 26.383 10.3593C27.421 11.0952 27.703 12.4956 27.8329 13.7624C28.0728 16.0956 28.0764 18.4534 27.8423 20.7866C27.7452 21.7487 27.5837 22.7659 26.9506 23.496C26.3233 24.2202 25.393 24.4991 24.417 24.6058L24.4159 24.607Z" fill="white"/>
<path d="M20.7425 17.2207L15.0833 13.9488V20.4925L20.7425 17.2207Z" fill="#FF0209"/>
</svg>
