<svg width="34" height="34" viewBox="0 0 34 34" fill="none" xmlns="http://www.w3.org/2000/svg">
<path d="M17.126 0.543732H17.05C7.84731 0.543732 0.387085 8.01445 0.387085 17.2301V17.3062C0.387085 26.5218 7.84731 33.9925 17.05 33.9925H17.126C26.3287 33.9925 33.7889 26.5218 33.7889 17.3062V17.2301C33.7889 8.01445 26.3287 0.543732 17.126 0.543732Z" fill="url(#paint0_linear_92_10)"/>
<path d="M22.2563 7.34879H11.9209C9.06552 7.34879 6.74261 9.67496 6.74261 12.5343V22.0031C6.74261 24.8624 9.06552 27.1886 11.9209 27.1886H22.2563C25.1117 27.1886 27.4346 24.8624 27.4346 22.0031V12.5343C27.4346 9.67496 25.1117 7.34879 22.2563 7.34879ZM8.56934 12.5343C8.56934 10.6839 10.0731 9.17808 11.9209 9.17808H22.2563C24.1041 9.17808 25.6079 10.6839 25.6079 12.5343V22.0031C25.6079 23.8535 24.1041 25.3593 22.2563 25.3593H11.9209C10.0731 25.3593 8.56934 23.8535 8.56934 22.0031V12.5343Z" fill="white"/>
<path d="M17.0887 22.091C19.7439 22.091 21.9054 19.9277 21.9054 17.2676C21.9054 14.6074 19.7451 12.4441 17.0887 12.4441C14.4323 12.4441 12.272 14.6074 12.272 17.2676C12.272 19.9277 14.4323 22.091 17.0887 22.091ZM17.0887 14.2746C18.7375 14.2746 20.0786 15.6176 20.0786 17.2687C20.0786 18.9199 18.7375 20.2629 17.0887 20.2629C15.4398 20.2629 14.0988 18.9199 14.0988 17.2687C14.0988 15.6176 15.4398 14.2746 17.0887 14.2746Z" fill="white"/>
<path d="M22.3512 13.2234C23.0662 13.2234 23.649 12.641 23.649 11.9238C23.649 11.2066 23.0674 10.6242 22.3512 10.6242C21.635 10.6242 21.0534 11.2066 21.0534 11.9238C21.0534 12.641 21.635 13.2234 22.3512 13.2234Z" fill="white"/>
<defs>
<linearGradient id="paint0_linear_92_10" x1="5.26694" y1="29.1058" x2="28.9423" y2="5.4649" gradientUnits="userSpaceOnUse">
<stop stop-color="#FAAD4F"/>
<stop offset="0.35" stop-color="#DD2A7B"/>
<stop offset="0.62" stop-color="#9537B0"/>
<stop offset="1" stop-color="#515BD4"/>
</linearGradient>
</defs>
</svg>
